<?xml version="1.0" encoding="UTF-8"?>
<svg id="Layer_1" xmlns="http://www.w3.org/2000/svg" viewBox="0 0 850.39 850.39">
  <defs>
    <style>
      .cls-1 {
        fill: #3e6ac8;
      }
    </style>
  </defs>
  <path class="cls-1" d="M447.77,636.45c-6.17,5.22-12.45,8.34-18.37,11.97-10.29,6.31-20.77,12.33-30.97,18.78-5.09,3.21-9.95,3.6-15.67,1.87-69.62-21.04-132.62-54.57-189.19-100.16-78.47-63.24-136.69-141.71-176.12-234.32-2.49-5.84-1.24-7.77,4.33-9.99,35.4-14.1,70.69-28.47,105.89-43.05,4.91-2.03,6.88-1.68,9.05,3.55,23.46,56.56,52.82,109.87,89.08,159.28,50.32,68.55,109.94,127.17,183.36,170.99,6.18,3.69,12.45,7.24,18.77,10.69,6.28,3.43,12.68,6.65,19.84,10.39Z"/>
  <path class="cls-1" d="M194.62,377.4c.43-4.24,1.42-8.52,2.95-12.74C249.25,222.11,343.11,116.11,475.94,43.93c16.94-9.2,34.48-17.19,52.23-24.71,4.15-1.76,5.7-1.03,7.38,3.14,14.63,36.31,29.41,72.56,44.41,108.71,1.9,4.57.14,5.61-3.52,7.18-60.71,26.22-118.29,57.93-171.23,97.74-70.75,53.2-128.46,117.91-171.97,195.07-2.8,4.96-4.04,4.99-7.1.27-8.76-13.5-17.91-26.75-26.95-40.07-2.82-4.15-4.34-8.67-4.57-13.86Z"/>
  <path class="cls-1" d="M433.34,226.01c18.53-13.43,38.07-24.56,56.87-36.82,3.48-2.27,6.88-1.1,10.32.2,53.3,20.17,102.63,47.46,147.62,82.45,82.61,64.26,143.72,144.99,184.76,241.13,2.43,5.69,1.47,7.8-4.18,10.05-35.61,14.17-71.13,28.58-106.53,43.27-4.95,2.05-6.32.69-8.16-3.56-29.05-67.46-65.03-130.84-111.32-188.12-46.13-57.08-100.22-105.15-162.74-143.69-1.8-1.11-3.59-2.25-5.36-3.42-.34-.22-.55-.63-1.28-1.49Z"/>
  <path class="cls-1" d="M647.26,454.55c5.82,10.26,11.36,19.97,16.85,29.72,5.93,10.52,11.63,21.17,17.76,31.57,4.26,7.22,4.36,13.93.66,21.58-26.49,54.73-59.58,104.94-100.99,149.6-58.59,63.2-128.69,109.76-207.47,143.88-5.06,2.19-7.14,1.5-9.24-3.76-14.13-35.38-28.5-70.67-43.09-105.86-2.16-5.22-1.67-7.36,3.83-9.7,63.27-26.91,122.79-60.34,177.22-102.56,54.73-42.45,101.72-92.16,140.82-149.31,1.04-1.52,2.12-3.01,3.65-5.16Z"/>
  <path class="cls-1" d="M516.29,435.96c0,41.74-32.11,74.69-72.8,74.7-42.21.01-74.91-32.2-75.1-74.01-.2-41.39,32.65-74.38,74.05-74.37,41.2,0,73.85,32.58,73.85,73.68Z"/>
</svg>