<svg width="48" height="48" viewBox="0 0 48 48" fill="none" xmlns="http://www.w3.org/2000/svg">
<g clip-path="url(#clip0_7306_24808)">
<path fill-rule="evenodd" clip-rule="evenodd" d="M45.5 19.6C40 13.7 34.4 8 28.5 2.6C26 0.3 22 0.3 19.5 2.6C13.7 8 7.99995 13.7 2.59995 19.6C0.399951 22 0.399951 26.1 2.59995 28.5C7.99995 34.3 13.7 40 19.6 45.5C22 47.7 26.1 47.7 28.5 45.5C34.4 40 40.0999 34.4 45.5 28.5C47.7 26.1 47.7 22 45.5 19.6ZM27 17.9C25 17.8 23 17.8 21 17.9C19.4 17.9 17.9 19.4 17.9 21C17.8 23 17.8 25 17.9 27C17.9 28.6 19.4 30 21 30.1C23 30.2 25 30.2 27 30.1C28.6 30.1 30 28.6 30.1 27C30.2 25 30.2 23 30.1 21C30.1 19.4 28.6 18 27 17.9Z" fill="black"/>
</g>
<defs>
<clipPath id="clip0_7306_24808">
<rect width="48" height="48" fill="white"/>
</clipPath>
</defs>
</svg>
